<svg viewBox="0 0 4.35 3.58" width="30px" height="30px" xml:space="preserve" xmlns="http://www.w3.org/2000/svg" shape-rendering="geometricPrecision" text-rendering="geometricPrecision" image-rendering="optimizeQuality" fill-rule="evenodd" clip-rule="evenodd"><path d="m2.28.07 2.07 1.29-.22.14v.93h-.31V1.7l-.69.43c.08.04.14.09.2.14.15.13.24.3.24.47 0 .26-.18.48-.46.63-.24.13-.57.21-.94.21-.36 0-.69-.08-.93-.21C.96 3.22.78 3 .78 2.74c0-.17.08-.33.22-.46.06-.06.14-.11.22-.15L0 1.36 2.17 0l.11.07zm.44 2.31-.55.34-.54-.34c-.15.05-.28.12-.36.19-.06.06-.09.12-.09.17 0 .1.09.2.24.28.19.1.46.17.75.17.3 0 .57-.07.75-.17.15-.08.25-.18.25-.28 0-.06-.04-.12-.1-.18-.08-.07-.2-.13-.35-.18zM2.97.97l-.8-.5-1.42.89 1.42.9 1.43-.9-.63-.39z" fill="#eae151" fill-rule="nonzero" class="fill-000000"></path></svg>