<svg id="Layer_1" version="1.1" viewBox="0 0 30.6 30.2" xml:space="preserve" xmlns="http://www.w3.org/2000/svg" enable-background="new 0 0 30.6 30.2"><circle cx="5.1" cy="4.2" r="3.3" fill="none" stroke="#eae151" stroke-width="1.25" stroke-linecap="round" stroke-linejoin="round" stroke-miterlimit="10" class="stroke-414042"></circle><path d="M24.7 29.3c-.7 0-1.3-.6-1.3-1.3v-7.7c0-4.3-1.3-5.7-3.2-5.7s-3.9 1.2-3.9 5l-.3 8.3c0 .7-.6 1.3-1.3 1.3h-2.8c-.7 0-1.3-.6-1.3-1.3V11.4c0-.7.6-1.3 1.3-1.3h2.8c.7 0 1.3.6 1.3 1.3v2.2c1.3-4 3.7-4.3 6.1-4.3s6.8 1.3 6.8 6.5v12.1M6.5 29.3H3.7c-.7 0-1.3-.6-1.3-1.3V11.4c0-.7.6-1.3 1.3-1.3h2.8c.7 0 1.3.6 1.3 1.3v16.5c0 .8-.6 1.4-1.3 1.4z" fill="none" stroke="#eae151" stroke-width="1.25" stroke-linecap="round" stroke-linejoin="round" stroke-miterlimit="10" class="stroke-414042"></path></svg>