<svg viewBox="0 0 64 64" xmlns="http://www.w3.org/2000/svg"><path d="M62.233 12.845a3.466 3.466 0 0 0-2.877-1.94l-3.002-.277 5.282-5.33a1.824 1.824 0 0 0-2.59-2.569l-5.31 5.359L53.452 5a3.466 3.466 0 0 0-1.94-2.876 3.29 3.29 0 0 0-3.715.673L43.86 6.733a1.829 1.829 0 0 0-.528 1.46l.686 7.456a4.391 4.391 0 0 1-1.254 3.493L29.02 33.006a1.83 1.83 0 0 0 .01 2.59 1.79 1.79 0 0 0 1.285.522 1.826 1.826 0 0 0 1.295-.532l13.824-13.944a4.392 4.392 0 0 1 3.52-1.28l7.21.662c.056.005.112.007.167.007a1.826 1.826 0 0 0 1.292-.535l3.937-3.936a3.288 3.288 0 0 0 .673-3.715Zm-6.588 4.46-7.87-.723-.724-7.87L49.864 5.9l.584 6.357a1.827 1.827 0 0 0 1.653 1.652l6.356.585Z" fill="#eae151" class="fill-000000"></path><path d="M33.875 24.558a10.411 10.411 0 1 0 6.146 6.095l-6.643 6.7a4.328 4.328 0 0 1-6.134-6.107Z" fill="#eae151" class="fill-000000"></path><path d="m55.935 23.513-7.21-.662a1.864 1.864 0 0 0-.173-.008 1.903 1.903 0 0 0-1.342.56l-1.56 1.572a18.012 18.012 0 1 1-6.145-6.095l1.484-1.498a1.887 1.887 0 0 0 .54-1.504l-.685-7.456c-.007-.075.007-.148.004-.224A28.127 28.127 0 1 0 56.32 23.531c-.126 0-.255-.006-.385-.018Z" fill="#eae151" class="fill-000000"></path></svg>